<svg width="210" height="110" viewBox="0 0 210 110" fill="none" xmlns="http://www.w3.org/2000/svg">
<mask id="mask0" mask-type="alpha" maskUnits="userSpaceOnUse" x="0" y="0" width="210" height="110">
<rect width="210" height="110" rx="8" fill="#C4C4C4"/>
</mask>
<g mask="url(#mask0)">
<path d="M215 -14H-5V114H215V-14Z" fill="black"/>
<path fill-rule="evenodd" clip-rule="evenodd" d="M164.849 35L190 82.6193L7.15078 198L-18 150.381L164.849 35Z" fill="url(#paint0_linear)"/>
<path fill-rule="evenodd" clip-rule="evenodd" d="M138.849 -68L164 -20.3807L-18.8492 95L-44 47.3807L138.849 -68Z" fill="url(#paint1_linear)"/>
<path opacity="0.2" d="M-9 96L87.112 34.2087C90.8746 32.1725 95.4956 32.909 98.4797 36.0067L113.151 51.2893C116.305 54.5711 121.265 55.1885 125.088 52.7623L221 -8" stroke="#FA6400" stroke-miterlimit="10"/>
<path opacity="0.2" d="M47 146L143.112 84.8029C146.875 82.7862 151.496 83.5156 154.48 86.5835L169.151 101.719C172.305 104.969 177.265 105.581 181.088 103.178L277 43" stroke="#FA6400" stroke-miterlimit="10"/>
</g>
<defs>
<linearGradient id="paint0_linear" x1="-18" y1="116.501" x2="189.999" y2="116.501" gradientUnits="userSpaceOnUse">
<stop stop-color="#0D0D0D"/>
<stop offset="1" stop-color="#161616"/>
</linearGradient>
<linearGradient id="paint1_linear" x1="-44" y1="13.5006" x2="163.999" y2="13.5006" gradientUnits="userSpaceOnUse">
<stop stop-color="#0D0D0D"/>
<stop offset="1" stop-color="#161616"/>
</linearGradient>
</defs>
</svg>
